<svg width="1280" height="1958" fill="none" xmlns="http://www.w3.org/2000/svg"><circle cx="115" cy="360" r="107.5" stroke="#212121"/><circle cx="115" cy="1886" r="107.5" stroke="#212121"/><circle cx="1165" cy="885" r="107.5" stroke="#212121"/><g filter="url('#a')"><circle cx="115" cy="360" r="68"/></g><g filter="url('#c')"><path d="M183 1886a68 68 0 0 0-136 0h136Z"/></g><g filter="url('#e')"><circle cx="1165" cy="885" r="68"/></g><mask id="g" fill="#fff"><path d="M1250 0a334 334 0 0 0-334 334h334V0Z"/></mask><path d="M1250 0a334 334 0 0 0-334 334h334V0Z" stroke="#212121" stroke-width="2" mask="url('#g')"/><mask id="h" fill="#fff"><path d="M1250 1394a334.1 334.1 0 0 0-334 334h334v-334Z"/></mask><path d="M1250 1394a334.1 334.1 0 0 0-334 334h334v-334Z" stroke="#212121" stroke-width="2" mask="url('#h')"/><mask id="i" fill="#fff"><path d="M364 1098A334 334 0 0 0 30 764v334h334Z"/></mask><path d="M364 1098A334 334 0 0 0 30 764v334h334Z" stroke="#212121" stroke-width="2" mask="url('#i')"/><defs><linearGradient id="b" x1="55" y1="272" x2="155" y2="457" gradientUnits="userSpaceOnUse"><stop stop-color="#C4C4C4"/><stop offset="1" stop-color="#C4C4C4" stop-opacity="0"/></linearGradient><linearGradient id="d" x1="55" y1="1798" x2="155" y2="1983" gradientUnits="userSpaceOnUse"><stop stop-color="#C4C4C4"/><stop offset="1" stop-color="#C4C4C4" stop-opacity="0"/></linearGradient><linearGradient id="f" x1="1105" y1="797" x2="1205" y2="982" gradientUnits="userSpaceOnUse"><stop stop-color="#C4C4C4"/><stop offset="1" stop-color="#C4C4C4" stop-opacity="0"/></linearGradient><filter id="a" x="27" y="272" width="176" height="176" filterUnits="userSpaceOnUse" color-interpolation-filters="sRGB"><feFlood flood-opacity="0" result="BackgroundImageFix"/><feGaussianBlur in="BackgroundImage" stdDeviation="10"/><feComposite in2="SourceAlpha" operator="in" result="effect1_backgroundBlur_12609_3"/><feBlend in="SourceGraphic" in2="effect1_backgroundBlur_12609_3" result="shape"/></filter><filter id="c" x="27" y="1798" width="176" height="108" filterUnits="userSpaceOnUse" color-interpolation-filters="sRGB"><feFlood flood-opacity="0" result="BackgroundImageFix"/><feGaussianBlur in="BackgroundImage" stdDeviation="10"/><feComposite in2="SourceAlpha" operator="in" result="effect1_backgroundBlur_12609_3"/><feBlend in="SourceGraphic" in2="effect1_backgroundBlur_12609_3" result="shape"/></filter><filter id="e" x="1077" y="797" width="176" height="176" filterUnits="userSpaceOnUse" color-interpolation-filters="sRGB"><feFlood flood-opacity="0" result="BackgroundImageFix"/><feGaussianBlur in="BackgroundImage" stdDeviation="10"/><feComposite in2="SourceAlpha" operator="in" result="effect1_backgroundBlur_12609_3"/><feBlend in="SourceGraphic" in2="effect1_backgroundBlur_12609_3" result="shape"/></filter></defs></svg>