<svg width="768" height="1256" fill="none" xmlns="http://www.w3.org/2000/svg"><circle cx="86" cy="83" r="62.5" transform="rotate(22.8 86 83)" stroke="#212121"/><circle cx="681" cy="1139" r="62.5" stroke="#212121"/><g filter="url('#a')"><circle cx="86" cy="83" r="40"/></g><g filter="url('#c')"><circle cx="681" cy="1139" r="40"/></g><mask id="e" fill="#fff"><path d="M263 1373.5A237.5 237.5 0 0 0 25.5 1136v237.5H263Z"/></mask><path d="M263 1373.5A237.5 237.5 0 0 0 25.5 1136v237.5H263Z" stroke="#212121" stroke-width="2" mask="url('#e')"/><mask id="f" fill="#fff"><path d="M742.5 335A237.5 237.5 0 0 0 505 572.5h237.5V335Z"/></mask><path d="M742.5 335A237.5 237.5 0 0 0 505 572.5h237.5V335Z" stroke="#212121" stroke-width="2" mask="url('#f')"/><defs><linearGradient id="b" x1="50.7" y1="31.2" x2="109.5" y2="140.1" gradientUnits="userSpaceOnUse"><stop stop-color="#C4C4C4"/><stop offset="1" stop-color="#C4C4C4" stop-opacity="0"/></linearGradient><linearGradient id="d" x1="645.7" y1="1087.2" x2="704.5" y2="1196.1" gradientUnits="userSpaceOnUse"><stop stop-color="#C4C4C4"/><stop offset="1" stop-color="#C4C4C4" stop-opacity="0"/></linearGradient><filter id="a" x="26" y="23" width="120" height="120" filterUnits="userSpaceOnUse" color-interpolation-filters="sRGB"><feFlood flood-opacity="0" result="BackgroundImageFix"/><feGaussianBlur in="BackgroundImage" stdDeviation="10"/><feComposite in2="SourceAlpha" operator="in" result="effect1_backgroundBlur_12613_6"/><feBlend in="SourceGraphic" in2="effect1_backgroundBlur_12613_6" result="shape"/></filter><filter id="c" x="621" y="1079" width="120" height="120" filterUnits="userSpaceOnUse" color-interpolation-filters="sRGB"><feFlood flood-opacity="0" result="BackgroundImageFix"/><feGaussianBlur in="BackgroundImage" stdDeviation="10"/><feComposite in2="SourceAlpha" operator="in" result="effect1_backgroundBlur_12613_6"/><feBlend in="SourceGraphic" in2="effect1_backgroundBlur_12613_6" result="shape"/></filter></defs></svg>