<svg aria-hidden="true" style="position:absolute;width:0;height:0;overflow:hidden" xmlns="http://www.w3.org/2000/svg"><defs><symbol id="logo" viewBox="0 0 137 71"><path d="M42.4 53c-1.3-3.6-3.9-5.4-7.9-5.4h-1.2V70h1.2c3.1 0 5.4-1.2 6.8-3.7a16 16 0 0 0 1.9-8.2c0-2-.3-3.7-.8-5.2ZM20.9 53.3c1.3 3.7 3.9 5.5 7.9 5.5H30V36.3h-1.2c-3.1 0-5.4 1.2-6.8 3.7a16.1 16.1 0 0 0-1.9 8.1c0 2 .3 3.7.8 5.2ZM0 .2h16.7v6H6v3h8.9v5.7h-9v3h10.8v6H0V.2ZM25.1.2h21.6L35.9 24.3 25.1.3Zm10.8 21.2 9-20H27l8.9 20ZM55.3.2H72v6H61.3v3h9v5.7h-9v3H72v6H55.3V.2ZM82.3 23.8V.2h1.3l16 16V.3h1.2v23.6H82.3ZM118.3 23.9V6.2h-8.7v-6h18.5v6h-8.6V24h-1.2ZM9.8 41c1.5 0 2.6.2 3.5.6a6 6 0 0 1 3.2 5.4c0 1.2-.3 2.2-.8 3.1-.6 1-1.4 1.7-2.4 2.3 1.2.4 2.3 1.2 3 2.2.8 1 1.3 2.3 1.3 3.6 0 1.1-.3 2.3-1 3.2-.5 1-1.3 1.8-2.2 2.4a6 6 0 0 1-1.7.6l-2.3.2H.2V41h9.6ZM48.5 62.9c-1.8-1.6-2.6-4-2.6-7h5.4c0 1.3.3 2.3 1.1 3 .8.6 1.8 1 3.2 1 1.2 0 2-.2 2.7-.6.7-.4 1-1 1-1.8 0-.6-.3-1.1-1-1.4a108.9 108.9 0 0 0-3.2-.9c-1.5-.2-3-.7-4.4-1.2a7.6 7.6 0 0 1-3-2.2 6 6 0 0 1-1.3-4c0-1.6.4-3 1.2-4.1.9-1.1 2-2 3.4-2.6 1.4-.5 3-.8 4.5-.8 2 0 3.8.4 5.2 1.1a8.2 8.2 0 0 1 4.3 7.7h-5.3c0-1.2-.3-2.1-1-2.7-.6-.6-1.6-.9-3-.9-1 0-1.9.2-2.4.6-.6.4-1 1-1 1.6 0 .7.5 1.2 1.3 1.6l3 .9c2 .4 3.5.8 4.6 1.2 1 .3 2 1 2.9 2a6 6 0 0 1 1.2 4c0 1.6-.5 3-1.3 4.2-1 1.1-2 2-3.5 2.7-1.5.6-3 1-4.7.9-3.2 0-5.6-.8-7.3-2.3ZM78.8 64.6V46.9H70v-6h18.5v6H80v17.7h-1.2ZM94.9 41h16.6v6h-10.7v3h9v5.6h-9v3h10.7v6H95V41ZM136.3 64.6h-17.6V41h8.9c1.9 0 3.5.3 4.7 1a7.8 7.8 0 0 1 3.8 6.7c0 1.7-.6 3.4-1.7 4.7a7.4 7.4 0 0 1-4 2.8l5.9 8.4ZM119.9 43v12.2h8.4L120 43Zm0 20.3h14l-4.7-6.9h-9.3v7Zm.8-21 9 12.8a6.3 6.3 0 0 0 3.7-2.3c.9-1.1 1.4-2.6 1.4-4.1 0-1.2-.3-2.4-.9-3.4a6 6 0 0 0-2.5-2.3c-1-.5-2.2-.8-3.8-.8h-6.9Z"/></symbol><symbol id="search" viewBox="0 0 12 12"><path d="M1.5 1.5a5.12 5.12 0 0 1 7.3 0 5.12 5.12 0 0 1 .24 7.04l2.86 2.86a.35.35 0 0 1-.5.5L8.54 9.04A5.11 5.11 0 0 1 1.5 8.8a5.12 5.12 0 0 1 0-7.3ZM2 8.3A4.45 4.45 0 1 0 8.3 2 4.45 4.45 0 0 0 2 8.3Z"/></symbol><symbol id="arrow" viewBox="0 0 13 8"><path d="M6.5 8 0 .5h13L6.5 8Z"/></symbol><symbol id="point" viewBox="0 0 8 10"><path d="M3.8 0C1.7 0 0 1.6 0 3.5 0 5.9 3.8 10 3.8 10s3.7-4.2 3.7-6.5C7.5 1.5 6 0 3.8 0Zm1.1 4.5c-.3.3-.7.4-1.1.4-.4 0-.9-.1-1.2-.4C2 3.9 2 3 2.6 2.4c.3-.3.7-.4 1.2-.4.4 0 .8.1 1.1.4.6.6.6 1.5 0 2Z"/></symbol><symbol id="close" viewBox="0 0 25 25"><path d="M1.29 25a1.29 1.29 0 0 1-.9-2.2L22.79.38a1.29 1.29 0 1 1 1.82 1.82L2.2 24.62c-.26.25-.59.38-.91.38Z"/><path d="M23.71 25c-.32 0-.65-.13-.9-.38L.38 2.2A1.29 1.29 0 0 1 2.2.38L24.62 22.8a1.29 1.29 0 0 1-.9 2.2Z"/></symbol><symbol id="ticket" viewBox="0 0 29 21"><path d="M3.22.83H0v19.34h3.22V.83ZM11.33.83H8.1v19.34h3.23V.83ZM16.2.83H13v19.34h3.22V.83ZM29 .83h-4.78v19.34H29V.83ZM6.44.83H4.88v19.34h1.56V.83ZM19.33.83h-1.56v19.34h1.56V.83ZM22.56.83h-1.57v19.34h1.57V.83Z" fill="#0E0E0E"/></symbol><symbol id="github-icon" viewBox="0 0 32 32">
<path d="M16 0c-8.84 0-16 7.16-16 16 0 7.080 4.58 13.060 10.94 15.18 0.8 0.14 1.1-0.34 1.1-0.76 0-0.38-0.020-1.64-0.020-2.98-4.020 0.74-5.060-0.98-5.38-1.88-0.18-0.46-0.96-1.88-1.64-2.26-0.56-0.3-1.36-1.040-0.020-1.060 1.26-0.020 2.16 1.16 2.46 1.64 1.44 2.42 3.74 1.74 4.66 1.32 0.14-1.040 0.56-1.74 1.020-2.14-3.56-0.4-7.28-1.78-7.28-7.9 0-1.74 0.62-3.18 1.64-4.3-0.16-0.4-0.72-2.040 0.16-4.24 0 0 1.34-0.42 4.4 1.64 1.28-0.36 2.64-0.54 4-0.54s2.72 0.18 4 0.54c3.060-2.080 4.4-1.64 4.4-1.64 0.88 2.2 0.32 3.84 0.16 4.24 1.020 1.12 1.64 2.54 1.64 4.3 0 6.14-3.74 7.5-7.3 7.9 0.58 0.5 1.080 1.46 1.080 2.96 0 2.14-0.020 3.86-0.020 4.4 0 0.42 0.3 0.92 1.1 0.76 6.39-2.203 10.899-8.165 10.9-15.18v-0c0-8.84-7.16-16-16-16z" fill="#FFFFFF"></path>
</symbol></defs></svg>

