<svg aria-hidden="true" style="position: absolute; width: 0; height: 0; overflow: hidden;" version="1.1" xmlns="http://www.w3.org/2000/svg" xmlns:xlink="http://www.w3.org/1999/xlink">
<defs>
<symbol id="location-icon" viewBox="0 0 7 10">
<path fill="#fff" style="fill: var(--color1, #fff)" d="M3.5 0c-1.93 0-3.5 1.559-3.5 3.476 0 2.409 3.503 6.524 3.503 6.524s3.497-4.234 3.497-6.524c0-1.917-1.57-3.476-3.5-3.476zM4.556 4.494c-0.291 0.289-0.674 0.434-1.056 0.434s-0.765-0.145-1.056-0.434c-0.582-0.578-0.582-1.519 0-2.097 0.282-0.28 0.657-0.434 1.056-0.434s0.774 0.154 1.056 0.434c0.582 0.578 0.582 1.519 0 2.097z"></path>
</symbol>
<symbol id="barcode-icon" viewBox="0 0 28 20">
<path d="M3.069 0.794h-3.069v18.413h3.069v-18.413z"></path>
<path d="M10.787 0.794h-3.069v18.413h3.069v-18.413z"></path>
<path d="M15.437 0.794h-3.069v18.413h3.069v-18.413z"></path>
<path d="M27.619 0.794h-4.557v18.413h4.557v-18.413z"></path>
<path d="M6.138 0.794h-1.488v18.413h1.488v-18.413z"></path>
<path d="M18.413 0.794h-1.488v18.413h1.488v-18.413z"></path>
<path d="M21.481 0.794h-1.488v18.413h1.488v-18.413z"></path>
</symbol>
<symbol id="close-btn-icon" viewBox="0 0 25 25">
<path d="M1.286 25c-0.329 0-0.659-0.125-0.909-0.377-0.502-0.502-0.502-1.317 0-1.819l22.428-22.427c0.502-0.502 1.317-0.502 1.819 0s0.502 1.317 0 1.819l-22.427 22.427c-0.252 0.25-0.581 0.377-0.91 0.377z"></path>
<path d="M23.715 25c-0.329 0-0.658-0.125-0.909-0.377l-22.429-22.427c-0.502-0.503-0.502-1.317 0-1.819s1.317-0.502 1.819 0l22.427 22.427c0.502 0.502 0.502 1.317 0 1.819-0.252 0.25-0.581 0.377-0.909 0.377z"></path>
</symbol>
<symbol id="drop-down-btn-icon" viewBox="0 0 16 10">
<path d="M8.125 10l-8.119-9.375h16.238l-8.119 9.375z"></path>
</symbol>
<symbol id="glass-btn-icon" viewBox="0 0 12 12">
<path d="M1.509 1.509c0.973-0.973 2.267-1.509 3.643-1.509s2.67 0.536 3.643 1.509c0.973 0.973 1.509 2.267 1.509 3.643 0 1.258-0.448 2.447-1.269 3.386l2.861 2.861c0.137 0.137 0.137 0.36 0 0.498-0.069 0.069-0.159 0.103-0.249 0.103s-0.18-0.034-0.249-0.103l-2.861-2.861c-0.938 0.82-2.128 1.269-3.386 1.269-1.376 0-2.67-0.536-3.643-1.509s-1.509-2.267-1.509-3.643 0.536-2.67 1.509-3.643zM2.007 8.298c1.734 1.734 4.556 1.734 6.291 0s1.734-4.556 0-6.291c-0.867-0.867-2.006-1.301-3.145-1.301s-2.278 0.434-3.145 1.301c-1.734 1.734-1.734 4.556 0 6.291z"></path>
</symbol>
<symbol id="logo-desktop-icon" viewBox="0 0 229 193">
<path fill="#000" style="fill: var(--color1, #000)" opacity="0.03" d="M0 193c30.073 0 59.851-4.992 87.635-14.691s53.028-23.916 74.293-41.837c21.264-17.922 38.132-39.198 49.64-62.614s17.432-48.513 17.432-73.858h-229v193z"></path>
<path fill="#fff" style="fill: var(--color2, #fff)" d="M58.42 94.048c-1.276-3.656-3.903-5.484-7.88-5.485h-1.255v22.549h1.255c3.074 0 5.343-1.248 6.806-3.745 1.233-2.131 1.85-4.842 1.85-8.135-0.003-1.958-0.262-3.687-0.776-5.185z"></path>
<path fill="#fff" style="fill: var(--color2, #fff)" d="M36.884 94.319c1.278 3.656 3.904 5.483 7.879 5.483h1.255v-22.549h-1.255c-3.074 0-5.343 1.248-6.806 3.745-1.23 2.13-1.845 4.842-1.845 8.135 0 1.956 0.258 3.685 0.773 5.186z"></path>
<path fill="#fff" style="fill: var(--color2, #fff)" d="M16 41.24h16.698v5.972h-10.704v2.986h8.892v5.667h-8.892v3.020h10.704v5.972h-16.698v-23.617z"></path>
<path fill="#fff" style="fill: var(--color2, #fff)" d="M41.095 41.212h21.605l-10.803 24.126-10.803-24.126zM51.898 62.352l8.925-19.884h-17.817l8.892 19.884z"></path>
<path fill="#fff" style="fill: var(--color2, #fff)" d="M71.329 41.24h16.698v5.972h-10.704v2.986h8.892v5.667h-8.892v3.020h10.704v5.972h-16.698v-23.617z"></path>
<path fill="#fff" style="fill: var(--color2, #fff)" d="M98.302 64.823v-23.611h1.284l16.006 16.050v-16.050h1.218v23.617l-18.509-0.006z"></path>
<path fill="#fff" style="fill: var(--color2, #fff)" d="M134.3 64.857v-17.645h-8.662v-5.972h18.509v5.972h-8.662v17.645h-1.185z"></path>
<path fill="#fff" style="fill: var(--color2, #fff)" d="M25.846 81.959c1.449 0 2.602 0.226 3.458 0.679 0.984 0.495 1.81 1.268 2.382 2.23s0.865 2.072 0.846 3.199c0.006 1.087-0.291 2.153-0.856 3.071-0.574 0.941-1.381 1.709-2.338 2.223 1.188 0.432 2.229 1.21 2.997 2.239 0.797 1.018 1.227 2.289 1.219 3.597 0.008 1.143-0.294 2.266-0.873 3.241-0.566 0.968-1.366 1.769-2.322 2.324-0.507 0.281-1.051 0.486-1.614 0.611-0.593 0.136-1.383 0.203-2.371 0.203h-10.144v-23.616h9.617z"></path>
<path fill="#fff" style="fill: var(--color2, #fff)" d="M64.462 103.863c-1.724-1.55-2.574-3.874-2.552-6.973h5.368c-0.022 1.289 0.351 2.274 1.12 2.952s1.844 1.018 3.228 1.018c1.142 0 2.042-0.192 2.701-0.577s0.988-0.973 0.988-1.764c0-0.656-0.335-1.131-1.005-1.425-0.64-0.285-1.308-0.495-1.993-0.628-0.659-0.125-1.065-0.2-1.219-0.226-1.492-0.284-2.958-0.701-4.38-1.244-1.194-0.457-2.259-1.216-3.096-2.206-0.834-0.995-1.251-2.307-1.251-3.936s0.417-3.014 1.251-4.157c0.834-1.142 1.949-1.996 3.343-2.562 1.455-0.577 3.003-0.865 4.562-0.848 1.998 0 3.727 0.385 5.187 1.154s2.607 1.934 3.442 3.495c0.387 0.66 0.645 1.392 0.757 2.155 0.087 0.669 0.13 1.344 0.132 2.019h-5.368c0-1.222-0.318-2.121-0.955-2.698s-1.625-0.865-2.964-0.865c-1.076 0-1.91 0.192-2.503 0.577s-0.889 0.905-0.889 1.561c0 0.724 0.395 1.255 1.186 1.595 0.971 0.395 1.974 0.702 2.997 0.916 1.976 0.407 3.518 0.797 4.627 1.171 1.118 0.38 2.114 1.066 2.882 1.985 0.812 0.95 1.219 2.285 1.219 4.004 0 1.629-0.439 3.031-1.317 4.207-0.878 1.177-2.036 2.076-3.475 2.698-1.477 0.63-3.062 0.947-4.66 0.933-3.184-0.004-5.637-0.78-7.361-2.33z"></path>
<path fill="#fff" style="fill: var(--color2, #fff)" d="M94.778 105.576v-17.644h-8.662v-5.972h18.51v5.972h-8.662v17.644h-1.186z"></path>
<path fill="#fff" style="fill: var(--color2, #fff)" d="M110.85 81.959h16.698v5.972h-10.704v2.986h8.893v5.667h-8.893v3.020h10.704v5.972h-16.698v-23.616z"></path>
<path fill="#fff" style="fill: var(--color2, #fff)" d="M152.281 105.576h-17.62v-23.616h8.925c1.91 0 3.469 0.351 4.677 1.052 1.154 0.647 2.111 1.61 2.766 2.782 0.662 1.187 1.003 2.534 0.988 3.902 0.016 1.718-0.542 3.389-1.581 4.734-0.995 1.35-2.396 2.323-3.985 2.766l5.83 8.381zM135.879 84.029v12.182h8.465l-8.465-12.182zM135.879 104.321h14.096l-4.808-6.888-1.021 0.034h-8.267v6.854zM136.736 83.215l8.958 12.894c1.438-0.296 2.731-1.1 3.656-2.274 0.95-1.155 1.465-2.625 1.449-4.14 0.013-1.194-0.295-2.368-0.889-3.393-0.593-1.018-1.463-1.832-2.503-2.341-0.967-0.498-2.229-0.747-3.788-0.747h-6.883z"></path>
</symbol>
<symbol id="logo-mobile-icon" viewBox="0 0 108 90">
<path fill="#000" style="fill: var(--color1, #000)" opacity="0.03" d="M-0.506 90c14.208 0 28.276-2.354 41.402-6.928s25.053-11.278 35.099-19.729 18.015-18.484 23.452-29.526c5.437-11.042 8.236-22.877 8.236-34.829h-108.189v91.011z"></path>
<path fill="#fff" style="fill: var(--color2, #fff)" d="M39.029 38.018c-0.565-1.303-1.726-1.955-3.485-1.955h-0.555v8.039h0.555c1.359 0 2.363-0.445 3.010-1.335 0.545-0.76 0.818-1.726 0.818-2.9-0.001-0.698-0.116-1.314-0.343-1.848z"></path>
<path fill="#fff" style="fill: var(--color2, #fff)" d="M29.504 38.114c0.565 1.303 1.727 1.955 3.485 1.955h0.555v-8.039h-0.555c-1.359 0-2.363 0.445-3.010 1.335-0.544 0.759-0.816 1.726-0.816 2.9 0 0.697 0.114 1.314 0.342 1.849z"></path>
<path fill="#fff" style="fill: var(--color2, #fff)" d="M20.268 19.193h7.385v2.129h-4.734v1.064h3.933v2.020h-3.933v1.077h4.734v2.129h-7.385v-8.419z"></path>
<path fill="#fff" style="fill: var(--color2, #fff)" d="M31.367 19.182h9.555l-4.778 8.601-4.778-8.601zM36.144 26.718l3.947-7.089h-7.88l3.933 7.089z"></path>
<path fill="#fff" style="fill: var(--color2, #fff)" d="M44.738 19.192h7.385v2.129h-4.734v1.065h3.933v2.020h-3.933v1.077h4.734v2.129h-7.385v-8.419z"></path>
<path fill="#fff" style="fill: var(--color2, #fff)" d="M56.668 27.599v-8.417h0.568l7.079 5.722v-5.722h0.539v8.419l-8.186-0.002z"></path>
<path fill="#fff" style="fill: var(--color2, #fff)" d="M72.588 27.611v-6.29h-3.831v-2.129h8.186v2.129h-3.831v6.29h-0.524z"></path>
<path fill="#fff" style="fill: var(--color2, #fff)" d="M24.623 33.708c0.641 0 1.151 0.081 1.529 0.242 0.435 0.176 0.801 0.452 1.053 0.795s0.383 0.739 0.374 1.141c0.003 0.388-0.129 0.767-0.379 1.095-0.254 0.336-0.611 0.609-1.034 0.792 0.525 0.154 0.986 0.431 1.325 0.798 0.352 0.363 0.543 0.816 0.539 1.282 0.004 0.407-0.13 0.808-0.386 1.155-0.25 0.345-0.604 0.631-1.027 0.829-0.224 0.1-0.465 0.173-0.714 0.218-0.262 0.048-0.612 0.073-1.049 0.073h-4.486v-8.419h4.253z"></path>
<path fill="#fff" style="fill: var(--color2, #fff)" d="M41.701 41.516c-0.762-0.552-1.139-1.381-1.129-2.486h2.374c-0.010 0.46 0.155 0.811 0.495 1.052s0.816 0.363 1.427 0.363c0.505 0 0.903-0.069 1.194-0.206s0.437-0.347 0.437-0.629c0-0.234-0.148-0.403-0.444-0.508-0.283-0.101-0.578-0.176-0.881-0.224-0.291-0.044-0.471-0.071-0.539-0.081-0.66-0.101-1.308-0.25-1.937-0.443-0.528-0.163-0.999-0.433-1.369-0.786-0.369-0.355-0.553-0.823-0.553-1.403s0.184-1.075 0.553-1.482c0.369-0.407 0.862-0.712 1.478-0.913 0.643-0.206 1.328-0.308 2.017-0.302 0.884 0 1.648 0.137 2.294 0.411s1.153 0.69 1.522 1.246c0.171 0.235 0.285 0.496 0.335 0.768 0.038 0.239 0.058 0.479 0.058 0.72h-2.374c0-0.435-0.141-0.756-0.422-0.962s-0.719-0.308-1.311-0.308c-0.476 0-0.845 0.069-1.107 0.206s-0.393 0.323-0.393 0.557c0 0.258 0.175 0.448 0.524 0.568 0.429 0.141 0.873 0.25 1.325 0.327 0.874 0.145 1.556 0.284 2.047 0.417 0.494 0.135 0.935 0.38 1.275 0.708 0.359 0.339 0.539 0.814 0.539 1.427 0 0.581-0.194 1.081-0.583 1.5s-0.901 0.74-1.537 0.962c-0.653 0.225-1.354 0.338-2.061 0.333-1.408-0.001-2.493-0.278-3.255-0.831z"></path>
<path fill="#fff" style="fill: var(--color2, #fff)" d="M55.109 42.127v-6.29h-3.831v-2.129h8.186v2.129h-3.831v6.29h-0.524z"></path>
<path fill="#fff" style="fill: var(--color2, #fff)" d="M62.217 33.708h7.385v2.129h-4.734v1.065h3.933v2.020h-3.933v1.077h4.734v2.129h-7.385v-8.419z"></path>
<path fill="#fff" style="fill: var(--color2, #fff)" d="M80.541 42.127h-7.793v-8.419h3.947c0.845 0 1.534 0.125 2.068 0.375 0.51 0.231 0.934 0.574 1.224 0.992 0.293 0.423 0.443 0.903 0.437 1.391 0.007 0.612-0.24 1.208-0.699 1.687-0.44 0.481-1.060 0.828-1.762 0.986l2.578 2.988zM73.287 34.446v4.343h3.743l-3.743-4.343zM73.287 41.68h6.234l-2.127-2.456-0.451 0.012h-3.656v2.443zM73.665 34.156l3.962 4.597c0.636-0.106 1.208-0.392 1.617-0.811 0.421-0.412 0.648-0.936 0.641-1.476 0.006-0.426-0.13-0.844-0.393-1.21-0.262-0.363-0.647-0.653-1.107-0.835-0.427-0.177-0.986-0.266-1.675-0.266h-3.044z"></path>
</symbol>
<symbol id="logo-tablet-icon" viewBox="0 0 179 151">
<path fill="#000" style="fill: var(--color1, #000)" opacity="0.03" d="M-0.5 151c23.572 0 46.914-3.906 68.692-11.494s41.566-18.711 58.234-32.733c16.668-14.021 29.89-30.668 38.91-48.988 9.021-18.32 13.664-37.956 13.664-57.785h-179.5v151z"></path>
<path fill="#fff" style="fill: var(--color2, #fff)" d="M63.127 44.928c-0.937-1.507-2.864-2.26-5.782-2.261h-0.921v9.294h0.921c2.256 0 3.92-0.515 4.995-1.544 0.905-0.878 1.357-1.996 1.357-3.353-0.002-0.807-0.192-1.519-0.569-2.137z"></path>
<path fill="#fff" style="fill: var(--color2, #fff)" d="M47.324 45.040c0.938 1.507 2.865 2.26 5.781 2.26h0.921v-9.294h-0.921c-2.256 0-3.92 0.514-4.994 1.544-0.902 0.878-1.354 1.996-1.354 3.353 0 0.806 0.189 1.519 0.567 2.138z"></path>
<path fill="#fff" style="fill: var(--color2, #fff)" d="M32 23.162h12.253v2.462h-7.854v1.231h6.525v2.336h-6.525v1.245h7.854v2.462h-12.253v-9.734z"></path>
<path fill="#fff" style="fill: var(--color2, #fff)" d="M50.414 23.15h15.853l-7.927 9.944-7.927-9.944zM58.341 31.864l6.549-8.196h-13.074l6.525 8.196z"></path>
<path fill="#fff" style="fill: var(--color2, #fff)" d="M72.599 23.162h12.253v2.462h-7.854v1.231h6.525v2.336h-6.525v1.245h7.854v2.462h-12.253v-9.735z"></path>
<path fill="#fff" style="fill: var(--color2, #fff)" d="M92.392 32.882v-9.732h0.943l11.745 6.616v-6.616h0.894v9.735l-13.581-0.002z"></path>
<path fill="#fff" style="fill: var(--color2, #fff)" d="M118.806 32.896v-7.273h-6.356v-2.462h13.582v2.462h-6.356v7.273h-0.87z"></path>
<path fill="#fff" style="fill: var(--color2, #fff)" d="M39.225 39.946c1.063 0 1.909 0.093 2.538 0.28 0.722 0.204 1.328 0.523 1.748 0.919s0.635 0.854 0.621 1.319c0.004 0.448-0.214 0.887-0.628 1.266-0.421 0.388-1.014 0.704-1.716 0.916 0.872 0.178 1.636 0.499 2.199 0.923 0.585 0.42 0.9 0.943 0.894 1.483 0.006 0.471-0.216 0.934-0.64 1.336-0.416 0.399-1.002 0.729-1.704 0.958-0.372 0.116-0.771 0.201-1.184 0.252-0.435 0.056-1.015 0.084-1.74 0.084h-7.443v-9.735h7.057z"></path>
<path fill="#fff" style="fill: var(--color2, #fff)" d="M67.56 48.974c-1.265-0.639-1.889-1.597-1.873-2.874h3.939c-0.016 0.531 0.258 0.937 0.822 1.217s1.353 0.42 2.368 0.42c0.838 0 1.498-0.079 1.982-0.238s0.725-0.401 0.725-0.727c0-0.27-0.246-0.466-0.737-0.587-0.469-0.117-0.96-0.204-1.462-0.259-0.483-0.051-0.781-0.082-0.894-0.093-1.095-0.117-2.17-0.289-3.214-0.513-0.877-0.189-1.657-0.501-2.272-0.909-0.612-0.41-0.918-0.951-0.918-1.623s0.306-1.242 0.918-1.713c0.612-0.471 1.43-0.823 2.453-1.056 1.068-0.238 2.203-0.356 3.347-0.35 1.466 0 2.735 0.159 3.806 0.476s1.913 0.797 2.526 1.441c0.284 0.272 0.473 0.574 0.556 0.888 0.064 0.276 0.096 0.554 0.097 0.832h-3.939c0-0.504-0.234-0.874-0.701-1.112s-1.192-0.357-2.175-0.357c-0.79 0-1.402 0.079-1.837 0.238s-0.653 0.373-0.653 0.643c0 0.298 0.29 0.517 0.87 0.657 0.713 0.163 1.448 0.289 2.199 0.378 1.45 0.168 2.582 0.329 3.395 0.482 0.82 0.156 1.551 0.439 2.115 0.818 0.596 0.392 0.894 0.942 0.894 1.65 0 0.671-0.322 1.249-0.967 1.734s-1.494 0.856-2.55 1.112c-1.084 0.26-2.247 0.39-3.42 0.385-2.336-0.001-4.136-0.322-5.401-0.96z"></path>
<path fill="#fff" style="fill: var(--color2, #fff)" d="M89.806 49.68v-7.273h-6.356v-2.462h13.582v2.462h-6.356v7.273h-0.87z"></path>
<path fill="#fff" style="fill: var(--color2, #fff)" d="M101.599 39.946h12.253v2.462h-7.855v1.231h6.525v2.336h-6.525v1.245h7.855v2.462h-12.253v-9.735z"></path>
<path fill="#fff" style="fill: var(--color2, #fff)" d="M132 49.68h-12.929v-9.735h6.549c1.402 0 2.546 0.145 3.432 0.434 0.846 0.266 1.549 0.663 2.030 1.147 0.485 0.489 0.735 1.044 0.725 1.608 0.011 0.708-0.398 1.397-1.16 1.951-0.731 0.557-1.759 0.957-2.925 1.14l4.278 3.455zM119.965 40.799v5.021h6.211l-6.211-5.021zM119.965 49.163h10.343l-3.528-2.839-0.749 0.014h-6.066v2.825zM120.593 40.463l6.574 5.315c1.055-0.122 2.004-0.454 2.682-0.937 0.698-0.476 1.075-1.082 1.063-1.706 0.010-0.492-0.216-0.976-0.652-1.399-0.435-0.419-1.074-0.755-1.837-0.965-0.709-0.205-1.635-0.308-2.779-0.308h-5.051z"></path>
</symbol>
</defs>
</svg>
